<svg width="24" height="24" viewBox="0 0 24 24" fill="none" xmlns="http://www.w3.org/2000/svg">
<path d="M8.7 11.7C10.823 11.7 12.55 9.973 12.55 7.85C12.55 5.727 10.823 4 8.7 4C6.577 4 4.85 5.727 4.85 7.85C4.85 9.973 6.577 11.7 8.7 11.7ZM8.7 6.2C9.613 6.2 10.35 6.937 10.35 7.85C10.35 8.763 9.613 9.5 8.7 9.5C7.787 9.5 7.05 8.763 7.05 7.85C7.05 6.937 7.787 6.2 8.7 6.2ZM8.755 17.2H4.047C5.136 16.65 7.017 16.1 8.7 16.1C8.821 16.1 8.953 16.111 9.074 16.111C9.448 15.308 10.097 14.648 10.878 14.12C10.075 13.977 9.316 13.9 8.7 13.9C6.126 13.9 1 15.187 1 17.75V19.4H8.7V17.75C8.7 17.563 8.722 17.376 8.755 17.2ZM16.95 14.45C14.926 14.45 10.9 15.561 10.9 17.75V19.4H23V17.75C23 15.561 18.974 14.45 16.95 14.45ZM18.281 12.448C19.117 11.975 19.7 11.084 19.7 10.05C19.7 8.532 18.468 7.3 16.95 7.3C15.432 7.3 14.2 8.532 14.2 10.05C14.2 11.084 14.783 11.975 15.619 12.448C16.015 12.668 16.466 12.8 16.95 12.8C17.434 12.8 17.885 12.668 18.281 12.448Z" fill="#8E95AF"/>
</svg>
