<svg width="24" height="24" viewBox="0 0 24 24" fill="none" xmlns="http://www.w3.org/2000/svg">
<path fill-rule="evenodd" clip-rule="evenodd" d="M16.2455 13.3C17.4909 14.1454 18.3636 15.2909 18.3636 16.8182V19.5454H22V16.8182C22 14.8364 18.7545 13.6636 16.2455 13.3Z" fill="white"/>
<path d="M9.27272 12.2727C11.281 12.2727 12.9091 10.6447 12.9091 8.63636C12.9091 6.62806 11.281 5 9.27272 5C7.26441 5 5.63635 6.62806 5.63635 8.63636C5.63635 10.6447 7.26441 12.2727 9.27272 12.2727Z" fill="white"/>
<path fill-rule="evenodd" clip-rule="evenodd" d="M14.7273 12.2727C16.7364 12.2727 18.3636 10.6455 18.3636 8.63636C18.3636 6.62727 16.7364 5 14.7273 5C14.3 5 13.9 5.09091 13.5182 5.21818C14.2727 6.15455 14.7273 7.34545 14.7273 8.63636C14.7273 9.92727 14.2727 11.1182 13.5182 12.0545C13.9 12.1818 14.3 12.2727 14.7273 12.2727Z" fill="white"/>
<path fill-rule="evenodd" clip-rule="evenodd" d="M9.27273 13.1818C6.84545 13.1818 2 14.4 2 16.8182V19.5455H16.5455V16.8182C16.5455 14.4 11.7 13.1818 9.27273 13.1818Z" fill="white"/>
</svg>
